<?xml version="1.0" encoding="UTF-8" standalone="no"?>
<!DOCTYPE svg PUBLIC "-//W3C//DTD SVG 1.1//EN" "http://www.w3.org/Graphics/SVG/1.1/DTD/svg11.dtd">
<svg width="100%" height="100%" viewBox="0 0 68 68" version="1.1" xmlns="http://www.w3.org/2000/svg" xmlns:xlink="http://www.w3.org/1999/xlink" xml:space="preserve" xmlns:serif="http://www.serif.com/" style="fill-rule:evenodd;clip-rule:evenodd;stroke-linejoin:round;stroke-miterlimit:2;">
    <circle cx="34" cy="34" r="34" style="fill:rgb(34,150,243);"/>
    <path id="embarcaciones" d="M44.308,41.092l5.488,-5.031c1.164,-1.066 0.795,-2.863 -0.552,-3.441l-4.936,-2.115l0,-7.844c0,-0.57 -0.461,-1.031 -1.03,-1.031l-3.093,0l0,-2.577c0,-0.854 -0.692,-1.546 -1.546,-1.546l-9.278,0c-0.854,0 -1.546,0.692 -1.546,1.546l0,2.577l-3.093,0c-0.569,0 -1.03,0.461 -1.03,1.031l0,7.844l-4.9,2.1c-1.449,0.621 -1.7,2.438 -0.617,3.43l5.517,5.057c0,2.325 -3.283,7.34 -9.536,7.34c-0.427,0 -0.773,0.346 -0.773,0.773l0,0.515c0,0.427 0.346,0.773 0.773,0.773c4.22,0 7.559,-1.867 9.713,-4.712c0.662,2.702 3.104,4.712 6.008,4.712l8.246,0c2.904,0 5.346,-2.01 6.008,-4.712c2.167,2.862 5.513,4.712 9.713,4.712c0.427,0 0.773,-0.346 0.773,-0.773l0,-0.515c0,-0.427 -0.346,-0.773 -0.773,-0.773c-6.032,0 -9.536,-4.819 -9.536,-7.34Zm-14.431,-21.524l8.246,0l0,2.062l-8.246,0l0,-2.062Zm-4.124,4.124l16.494,0l0,5.93l-7.435,-3.187c-0.518,-0.222 -1.106,-0.222 -1.624,0l-7.435,3.187l0,-5.93Zm16.494,16.493l0,4.123c0,2.278 -1.846,4.124 -4.124,4.124l-8.246,0c-2.278,0 -4.124,-1.846 -4.124,-4.124l0,-4.123l-6.185,-5.67l14.432,-6.185l14.432,6.185l-6.185,5.67Z" style="fill:white;fill-rule:nonzero;"/>
</svg>
