<?xml version="1.0" encoding="UTF-8" standalone="no"?>
<!DOCTYPE svg PUBLIC "-//W3C//DTD SVG 1.1//EN" "http://www.w3.org/Graphics/SVG/1.1/DTD/svg11.dtd">
<svg width="100%" height="100%" viewBox="0 0 68 68" version="1.1" xmlns="http://www.w3.org/2000/svg" xmlns:xlink="http://www.w3.org/1999/xlink" xml:space="preserve" xmlns:serif="http://www.serif.com/" style="fill-rule:evenodd;clip-rule:evenodd;stroke-linecap:round;stroke-linejoin:round;">
    <circle cx="34" cy="34" r="34" style="fill:rgb(34,150,243);"/>
    <g id="franquicias">
        <path d="M52,32c0,-2.208 -1.792,-4 -4,-4l-20,0c-2.208,0 -4,1.792 -4,4l0,12c0,2.208 1.792,4 4,4l20,0c2.208,0 4,-1.792 4,-4l0,-12Z" style="fill:none;stroke:white;stroke-width:2px;"/>
        <circle cx="38" cy="38" r="4" style="fill:none;stroke:white;stroke-width:2px;"/>
        <path d="M44,28l0,-4c0,-2.194 -1.806,-4 -4,-4l-20,0c-2.194,0 -4,1.806 -4,4l0,12c0,2.194 1.806,4 4,4l4,0" style="fill:none;fill-rule:nonzero;stroke:white;stroke-width:2px;"/>
    </g>
</svg>
