<?xml version="1.0" encoding="UTF-8" standalone="no"?>
<!DOCTYPE svg PUBLIC "-//W3C//DTD SVG 1.1//EN" "http://www.w3.org/Graphics/SVG/1.1/DTD/svg11.dtd">
<svg width="100%" height="100%" viewBox="0 0 68 68" version="1.1" xmlns="http://www.w3.org/2000/svg" xmlns:xlink="http://www.w3.org/1999/xlink" xml:space="preserve" xmlns:serif="http://www.serif.com/" style="fill-rule:evenodd;clip-rule:evenodd;stroke-linejoin:round;stroke-miterlimit:2;">
    <g transform="matrix(2.91652,0,0,4.1123,-17.629,-44.3363)">
        <ellipse cx="17.702" cy="19.049" rx="11.658" ry="8.268" style="fill:rgb(255,208,15);"/>
    </g>
    <g transform="matrix(0.0625,0,0,0.0625,14,18)">
        <path d="M513.6,202.8L494.4,177.2L446.4,213.2L465.6,238.8L513.6,202.8ZM576,192C589.3,192 601.6,188 611.8,181.1C618.6,176.5 624.5,170.6 629.1,163.8C636,153.6 640,141.3 640,128C640,114.7 636,102.4 629.1,92.2C626.8,88.8 624.2,85.6 621.3,82.7C618.4,79.8 615.2,77.2 611.8,74.9C601.6,68 589.3,64 576,64C562.7,64 550.4,68 540.2,74.9C533.4,79.5 527.5,85.4 522.9,92.2C516,102.4 512,114.7 512,128C512,163.3 540.7,192 576,192ZM576,96C593.6,96 608,110.4 608,128C608,145.6 593.6,160 576,160C558.4,160 544,145.6 544,128C544,110.4 558.4,96 576,96ZM99.8,250.9C89.6,244 77.3,240 64,240C50.7,240 38.4,244 28.2,250.9C21.4,255.5 15.5,261.4 10.9,268.2C4,278.4 0,290.7 0,304C0,339.3 28.7,368 64,368C99.3,368 128,339.3 128,304C128,290.7 124,278.4 117.1,268.2C112.5,261.4 106.6,255.5 99.8,250.9ZM64,336C46.4,336 32,321.6 32,304C32,286.4 46.4,272 64,272C81.6,272 96,286.4 96,304C96,321.6 81.6,336 64,336ZM152,320L200,320L200,288L152,288L152,320ZM621.3,402.7C618.4,399.8 615.2,397.2 611.8,394.9C601.6,388 589.3,384 576,384C562.7,384 550.4,388 540.2,394.9C536.9,397.1 533.9,399.6 531.1,402.4L439.3,347.3C444.9,334 448,319.3 448,304C448,242.1 397.9,192 336,192C324.7,192 314.1,194.2 303.8,197.2L264.5,113.1C278.8,101.4 288,83.9 288,64C288,50.7 284,38.4 277.1,28.2C272.5,21.4 266.6,15.5 259.8,10.9C249.6,4 237.3,0 224,0C210.7,0 198.4,4 188.2,10.9C181.4,15.5 175.5,21.4 170.9,28.2C164,38.4 160,50.7 160,64C160,99.3 188.7,128 224,128C228,128 231.9,127.5 235.7,126.8L274.7,210.4C244.2,230.4 224,264.8 224,304C224,365.9 274.1,416 336,416C371,416 401.8,399.6 422.4,374.5L514.8,429.9C513.1,435.7 512.1,441.7 512.1,448C512.1,483.3 540.8,512 576.1,512C589.4,512 601.7,508 611.9,501.1C618.7,496.5 624.6,490.6 629.2,483.8C636,473.6 640,461.3 640,448C640,434.7 636,422.4 629.1,412.2C626.8,408.8 624.1,405.6 621.3,402.7ZM224,96C206.4,96 192,81.6 192,64C192,46.4 206.4,32 224,32C241.6,32 256,46.4 256,64C256,81.6 241.6,96 224,96ZM336,384C291.9,384 256,348.1 256,304C256,259.9 291.9,224 336,224C380.1,224 416,259.9 416,304C416,348.1 380.1,384 336,384ZM576,480C558.4,480 544,465.6 544,448C544,430.4 558.4,416 576,416C593.6,416 608,430.4 608,448C608,465.6 593.6,480 576,480Z" style="fill:white;fill-rule:nonzero;"/>
    </g>
</svg>
