<?xml version="1.0" encoding="UTF-8" standalone="no"?>
<!DOCTYPE svg PUBLIC "-//W3C//DTD SVG 1.1//EN" "http://www.w3.org/Graphics/SVG/1.1/DTD/svg11.dtd">
<svg width="100%" height="100%" viewBox="0 0 68 68" version="1.1" xmlns="http://www.w3.org/2000/svg" xmlns:xlink="http://www.w3.org/1999/xlink" xml:space="preserve" xmlns:serif="http://www.serif.com/" style="fill-rule:evenodd;clip-rule:evenodd;stroke-linecap:round;stroke-linejoin:round;">
    <g transform="matrix(2.91652,0,0,4.1123,-17.629,-44.3363)">
        <ellipse cx="17.702" cy="19.049" rx="11.658" ry="8.268" style="fill:rgb(255,208,15);"/>
    </g>
    <g transform="matrix(1,0,0,1,-19.4229,0.357477)">
        <g transform="matrix(1,0,0,1,29.4229,9.64252)">
            <circle cx="10" cy="36" r="4" style="fill:none;stroke:white;stroke-width:3px;"/>
        </g>
        <g transform="matrix(1,0,0,1,29.4229,9.64252)">
            <circle cx="38" cy="12" r="4" style="fill:none;stroke:white;stroke-width:3px;"/>
        </g>
        <g transform="matrix(1,0,0,1,29.4229,9.64252)">
            <path d="M38,16L38,26C38,31.486 33.486,36 28,36L22,36L28,30M28,42L22,36" style="fill:none;fill-rule:nonzero;stroke:white;stroke-width:3px;"/>
        </g>
        <g transform="matrix(1,0,0,1,29.4229,9.64252)">
            <path d="M10,32L10,22C10,16.514 14.514,12 20,12L26,12L20,6M20,18L26,12" style="fill:none;fill-rule:nonzero;stroke:white;stroke-width:3px;"/>
        </g>
    </g>
</svg>
