<?xml version="1.0" encoding="UTF-8" standalone="no"?>
<!DOCTYPE svg PUBLIC "-//W3C//DTD SVG 1.1//EN" "http://www.w3.org/Graphics/SVG/1.1/DTD/svg11.dtd">
<svg width="100%" height="100%" viewBox="0 0 68 68" version="1.1" xmlns="http://www.w3.org/2000/svg" xmlns:xlink="http://www.w3.org/1999/xlink" xml:space="preserve" xmlns:serif="http://www.serif.com/" style="fill-rule:evenodd;clip-rule:evenodd;stroke-linecap:round;stroke-linejoin:round;">
    <circle cx="34" cy="34" r="34" style="fill:rgb(34,150,243);"/>
    <g id="rc-professional">
        <path d="M52,29c0,-2.208 -1.792,-4 -4,-4l-28,0c-2.208,0 -4,1.792 -4,4l0,18c0,2.208 1.792,4 4,4l28,0c2.208,0 4,-1.792 4,-4l0,-18Z" style="fill:none;stroke:white;stroke-width:2px;"/>
        <path d="M26,25l0,-4c0,-2.194 1.806,-4 4,-4l8,0c2.194,0 4,1.806 4,4l0,4" style="fill:none;fill-rule:nonzero;stroke:white;stroke-width:2px;"/>
        <path d="M34,35l0,0.02" style="fill:none;fill-rule:nonzero;stroke:white;stroke-width:2px;"/>
        <path d="M16,37c11.313,5.701 24.687,5.701 36,0" style="fill:none;fill-rule:nonzero;stroke:white;stroke-width:2px;"/>
    </g>
</svg>
